<svg width="1000" height="1000" viewBox="0 0 1000 1000" fill="none" xmlns="http://www.w3.org/2000/svg">
<path d="M700 0C865.685 6.44277e-06 1000 134.315 1000 300V700C1000 865.685 865.685 1000 700 1000H300C134.315 1000 6.44434e-06 865.685 0 700V300C6.44434e-06 134.315 134.315 6.44277e-06 300 0H700ZM532.568 105.5L532.423 105.74L272.422 533.162L272.401 533.197L272.386 533.234C270.954 536.768 269.781 542.12 271.024 546.63C271.65 548.901 272.893 550.969 275.026 552.463C277.155 553.954 280.125 554.841 284.153 554.841H412.826L421.003 562.476L423.263 885.088L423.264 885.219L423.328 885.333L427.85 893.248L427.994 893.5H458.521L458.667 893.262L727.711 456.229L727.733 456.191L727.749 456.152C728.892 453.294 729.951 449.03 729.303 445.611C728.976 443.887 728.204 442.332 726.745 441.31C725.296 440.294 723.248 439.86 720.478 440.2L579.374 439.071L571.22 432.545V110.898L571.093 110.756L566.571 105.668L566.422 105.5H532.568Z" fill="white"/>
</svg>
