<svg width="1000" height="1000" viewBox="0 0 1000 1000" fill="none" xmlns="http://www.w3.org/2000/svg">
<rect width="1000" height="1000" rx="300" fill="black"/>
<path d="M486.291 639.178C410.574 639.178 362.904 591.515 362.904 515.81C362.904 440.105 437.994 365.026 513.71 365.026C589.426 365.026 664.516 419.856 678.226 502.102C691.935 556.932 664.516 721.427 513.709 748.842M452.726 425.838C452.726 425.838 472.581 406.149 513.71 406.149C554.839 406.149 637.097 447.272 623.387 556.932C595.968 694.008 472.581 694.008 472.581 694.008C384.177 702.694 280.646 617.383 280.646 515.81C280.646 379.541 391.13 269.073 527.42 269.073C615.286 269.073 703.823 314.988 755.645 384.13C758.197 387.534 760.659 390.994 763.028 394.508M225.807 337.611C143.548 529.52 263.59 735.87 445.162 748.839C452.702 749.377 460.03 749.62 467.151 749.583M925 433.564C925 433.564 856.45 186.832 582.258 145.704C455.392 126.675 340.725 169.216 268.718 263.56M75 652.889C75 652.889 260.501 952.02 582.258 844.792C705.645 803.672 801.613 652.079 801.613 515.81C801.613 501.8 800.155 488.062 797.392 474.69M253.226 145.708C250.739 148.189 239.516 141.918 239.516 145.708C239.516 149.498 250.142 145.031 252.629 147.512C255.109 149.987 249.445 159.415 253.226 159.415C257.007 159.415 250.745 148.183 253.226 145.708ZM253.226 145.708C255.706 143.233 249.445 132 253.226 132C257.007 132 250.745 143.233 253.226 145.708ZM253.226 145.708C255.712 148.189 266.935 141.918 266.935 145.708C266.935 149.498 255.712 143.226 253.226 145.708ZM691.935 255.368C689.449 257.85 678.225 251.578 678.225 255.368C678.225 259.158 688.852 254.691 691.338 257.173C693.818 259.648 688.154 269.076 691.935 269.076C695.716 269.076 689.455 257.843 691.935 255.368ZM691.935 255.368C694.415 252.893 688.154 241.661 691.935 241.661C695.716 241.661 689.455 252.893 691.935 255.368ZM691.935 255.368C694.422 257.85 705.645 251.578 705.645 255.368C705.645 259.158 694.422 252.887 691.935 255.368ZM198.387 666.596C195.9 669.078 184.677 662.806 184.677 666.596C184.677 670.386 195.304 665.919 197.79 668.401C200.27 670.876 194.606 680.304 198.387 680.304C202.168 680.304 195.907 669.071 198.387 666.596ZM198.387 666.596C200.867 664.121 194.606 652.889 198.387 652.889C202.168 652.889 195.907 664.121 198.387 666.596ZM198.387 666.596C200.874 669.078 212.097 662.806 212.097 666.596C212.097 670.386 200.874 664.115 198.387 666.596ZM746.774 831.088C744.287 833.569 733.064 827.298 733.064 831.088C733.064 834.878 743.69 830.411 746.177 832.892C748.657 835.367 742.993 844.795 746.774 844.795C750.555 844.795 744.293 833.563 746.774 831.088ZM746.774 831.088C749.254 828.613 742.993 817.38 746.774 817.38C750.555 817.38 744.293 828.613 746.774 831.088ZM746.774 831.088C749.26 833.569 760.483 827.298 760.483 831.088C760.483 834.878 749.26 828.606 746.774 831.088ZM568.548 522.667C568.548 556.734 540.927 584.351 506.855 584.351C472.782 584.351 445.161 556.734 445.161 522.667C445.161 488.599 472.782 460.982 506.855 460.982C540.927 460.982 568.548 488.599 568.548 522.667ZM842.741 433.567C842.741 463.849 818.189 488.398 787.903 488.398C757.616 488.398 733.064 463.849 733.064 433.567C733.064 403.285 757.616 378.737 787.903 378.737C818.189 378.737 842.741 403.285 842.741 433.567ZM294.355 296.491C294.355 326.773 269.803 351.322 239.516 351.322C209.229 351.322 184.677 326.773 184.677 296.491C184.677 266.209 209.229 241.661 239.516 241.661C269.803 241.661 294.355 266.209 294.355 296.491ZM513.709 762.55C513.709 777.691 501.433 789.965 486.29 789.965C471.147 789.965 458.871 777.691 458.871 762.55C458.871 747.409 471.147 735.134 486.29 735.134C501.433 735.134 513.709 747.409 513.709 762.55Z" stroke="white" stroke-width="30"/>
</svg>
